<svg width="113" height="113" viewBox="0 0 113 113" fill="none" xmlns="http://www.w3.org/2000/svg">
<path d="M1.92519 71.1233C-0.317838 62.7522 -0.6051 53.9773 1.08563 45.4774C2.77636 36.9775 6.39976 28.9805 11.6755 22.105C16.9513 15.2295 23.738 9.65975 31.5107 5.82669C39.2833 1.99364 47.8336 1.96289e-06 56.5 0C65.1664 -1.96288e-06 73.7166 1.99363 81.4893 5.82668C89.262 9.65973 96.0487 15.2294 101.324 22.105C106.6 28.9805 110.224 36.9775 111.914 45.4774C113.605 53.9773 113.318 62.7522 111.075 71.1233L56.5 56.5L1.92519 71.1233Z" fill="#F47979"/>
<path d="M34.228 47.552H37.036V61.136H34.228V47.552ZM39.892 45.104H42.748V63.68C42.748 65.36 42.412 66.152 41.428 66.632C40.42 67.088 38.836 67.184 36.628 67.184C36.484 66.368 36.028 65.024 35.62 64.208C37.204 64.28 38.74 64.28 39.244 64.256C39.7 64.256 39.892 64.112 39.892 63.656V45.104ZM25.732 56.096H31.252V58.616H25.732V56.096ZM29.98 56.096H32.644C32.644 56.096 32.62 56.816 32.596 57.152C32.356 62.96 32.116 65.264 31.444 66.08C30.964 66.704 30.412 66.896 29.644 67.016C28.996 67.112 27.892 67.112 26.74 67.088C26.692 66.32 26.404 65.264 25.972 64.592C26.98 64.688 27.916 64.688 28.348 64.688C28.708 64.688 28.948 64.64 29.164 64.4C29.572 63.92 29.788 61.88 29.98 56.528V56.096ZM25.108 48.272V51.56H29.644V48.272H25.108ZM22.516 45.752H32.404V54.128H22.516V45.752ZM24.94 53.336H27.772C27.508 58.424 26.884 63.872 22.996 67.184C22.564 66.464 21.748 65.552 21.052 65.096C24.436 62.312 24.772 57.56 24.94 53.336ZM46.924 46.328H66.004V48.752H46.924V46.328ZM47.932 50.048H65.14V52.376H47.932V50.048ZM45.604 53.744H67.372V56.216H45.604V53.744ZM46.06 57.968H66.988V60.464H46.06V57.968ZM60.388 55.928H63.34V63.992C63.34 65.384 63.076 66.152 62.116 66.608C61.132 67.04 59.812 67.088 58.06 67.088C57.94 66.272 57.484 65.072 57.1 64.28C58.252 64.328 59.548 64.328 59.908 64.328C60.292 64.328 60.388 64.232 60.388 63.92V55.928ZM54.676 44.576L57.82 44.888C56.62 55.16 54.028 62.288 47.668 66.392C47.188 65.816 45.82 64.64 45.076 64.112C51.364 60.632 53.692 54.056 54.676 44.576ZM51.82 62.648L54.148 61.208C55.156 62.192 56.428 63.608 57.028 64.568L54.556 66.2C54.028 65.24 52.804 63.728 51.82 62.648ZM70.396 46.064H88.252V48.8H70.396V46.064ZM70.612 50.528H84.82V53.024H70.612V50.528ZM87.244 46.064H90.196V63.512C90.196 65.168 89.908 66.056 88.876 66.56C87.868 67.04 86.356 67.112 84.172 67.112C84.076 66.248 83.644 64.808 83.236 63.992C84.604 64.064 86.164 64.064 86.644 64.04C87.076 64.04 87.244 63.92 87.244 63.464V46.064ZM71.86 54.8H74.668V64.712H71.86V54.8ZM74.356 54.8H83.572V62.96H74.356V60.488H80.74V57.296H74.356V54.8Z" fill="#186259"/>
</svg>
