<svg width="243" height="243" viewBox="0 0 243 243" fill="none" xmlns="http://www.w3.org/2000/svg">
<path d="M4.14002 152.947C-0.683493 134.945 -1.30123 116.075 2.33459 97.7965C5.9704 79.518 13.7623 62.3209 25.1076 47.5355C36.4528 32.7501 51.0472 20.7727 67.7619 12.53C84.4766 4.28721 102.863 4.22107e-06 121.5 0C140.137 -4.22107e-06 158.523 4.2872 175.238 12.5299C191.953 20.7727 206.547 32.7501 217.892 47.5355C229.238 62.3209 237.03 79.518 240.665 97.7965C244.301 116.075 243.684 134.945 238.86 152.946L121.5 121.5L4.14002 152.947Z" fill="#F47979"/>
<path d="M76.956 104.104H82.572V131.272H76.956V104.104ZM88.284 99.208H93.996V136.36C93.996 139.72 93.324 141.304 91.356 142.264C89.34 143.176 86.172 143.368 81.756 143.368C81.468 141.736 80.556 139.048 79.74 137.416C82.908 137.56 85.98 137.56 86.988 137.512C87.9 137.512 88.284 137.224 88.284 136.312V99.208ZM59.964 121.192H71.004V126.232H59.964V121.192ZM68.46 121.192H73.788C73.788 121.192 73.74 122.632 73.692 123.304C73.212 134.92 72.732 139.528 71.388 141.16C70.428 142.408 69.324 142.792 67.788 143.032C66.492 143.224 64.284 143.224 61.98 143.176C61.884 141.64 61.308 139.528 60.444 138.184C62.46 138.376 64.332 138.376 65.196 138.376C65.916 138.376 66.396 138.28 66.828 137.8C67.644 136.84 68.076 132.76 68.46 122.056V121.192ZM58.716 105.544V112.12H67.788V105.544H58.716ZM53.532 100.504H73.308V117.256H53.532V100.504ZM58.38 115.672H64.044C63.516 125.848 62.268 136.744 54.492 143.368C53.628 141.928 51.996 140.104 50.604 139.192C57.372 133.624 58.044 124.12 58.38 115.672ZM102.348 101.656H140.508V106.504H102.348V101.656ZM104.364 109.096H138.78V113.752H104.364V109.096ZM99.708 116.488H143.244V121.432H99.708V116.488ZM100.62 124.936H142.476V129.928H100.62V124.936ZM129.276 120.856H135.18V136.984C135.18 139.768 134.652 141.304 132.732 142.216C130.764 143.08 128.124 143.176 124.62 143.176C124.38 141.544 123.468 139.144 122.7 137.56C125.004 137.656 127.596 137.656 128.316 137.656C129.084 137.656 129.276 137.464 129.276 136.84V120.856ZM117.852 98.152L124.14 98.776C121.74 119.32 116.556 133.576 103.836 141.784C102.876 140.632 100.14 138.28 98.652 137.224C111.228 130.264 115.884 117.112 117.852 98.152ZM112.14 134.296L116.796 131.416C118.812 133.384 121.356 136.216 122.556 138.136L117.612 141.4C116.556 139.48 114.108 136.456 112.14 134.296ZM149.292 101.128H185.004V106.6H149.292V101.128ZM149.724 110.056H178.14V115.048H149.724V110.056ZM182.988 101.128H188.892V136.024C188.892 139.336 188.316 141.112 186.252 142.12C184.236 143.08 181.212 143.224 176.844 143.224C176.652 141.496 175.788 138.616 174.972 136.984C177.708 137.128 180.828 137.128 181.788 137.08C182.652 137.08 182.988 136.84 182.988 135.928V101.128ZM152.22 118.6H157.836V138.424H152.22V118.6ZM157.212 118.6H175.644V134.92H157.212V129.976H169.98V123.592H157.212V118.6Z" fill="white"/>
</svg>
